<svg height="60" width="60" xmlns="http://www.w3.org/2000/svg"><path d="M39 53v2c0 2.757-2.243 5-5 5s-5-2.243-5-5V31a1 1 0 012 0v24c0 1.654 1.346 3 3 3s3-1.346 3-3v-2a1 1 0 112 0m15-27c-3.072 0-4.983 1.745-6 3.088C46.983 27.745 45.072 26 42 26s-4.983 1.745-6 3.088C34.983 27.745 33.072 26 30 26s-4.983 1.745-6 3.088C22.983 27.745 21.072 26 18 26s-4.983 1.745-6 3.088C10.983 27.745 9.072 26 6 26c-1.328 0-2.391.321-3.228.771.72-2.539 2.021-6.189 4.24-9.804C11.34 9.915 17.319 5.717 24.826 4.43c-10.462 6.658-13.652 19.713-13.8 20.341a1 1 0 001.947.458C13.009 25.077 16.469 11 27.581 5.16c-4.507 8.785-4.487 19.356-4.483 19.847a1 1 0 001 .993h.007a1 1 0 00.993-1.007c-.001-.121-.023-11.535 4.902-20.088 4.929 8.546 5 19.974 5 20.095a1 1 0 002 0c0-.491-.059-11.056-4.577-19.838 11.109 5.84 14.567 19.915 14.603 20.067a1.002 1.002 0 001.203.744 1 1 0 00.745-1.202c-.149-.628-3.338-13.683-13.8-20.341 7.507 1.287 13.486 5.485 17.814 12.537 2.221 3.618 3.523 7.271 4.241 9.811C56.392 26.324 55.328 26 54 26m5.953 3.639C59.496 27.08 54.494 2.716 31 2.032V1a1 1 0 00-2 0v1.034C4.332 2.752.052 29.579.011 29.854a.996.996 0 00.716 1.104c.48.138.993-.106 1.193-.566C1.962 30.294 2.996 28 6 28c3.551 0 5.021 3.259 5.081 3.394a.998.998 0 00.916.604h.004c.396 0 .757-.237.916-.6C12.979 31.259 14.449 28 18 28s5.021 3.259 5.081 3.394a.998.998 0 00.916.604.978.978 0 00.92-.6C24.979 31.259 26.449 28 30 28c3.552 0 5.021 3.259 5.081 3.394a1 1 0 00.916.604h.004c.396 0 .757-.237.916-.6C36.979 31.259 38.448 28 42 28c3.543 0 5.015 3.243 5.082 3.396a.999.999 0 00.915.602h.004c.396 0 .757-.237.916-.6C48.979 31.259 50.448 28 54 28c2.987 0 4.039 2.299 4.079 2.39A1 1 0 0059 31h.02a1 1 0 00.933-1.361" fill="#000" fill-rule="evenodd"/></svg>